<svg xmlns="http://www.w3.org/2000/svg" width="202" height="61.4" viewBox="16 1.4 202 61.4">
  <text x="0" y="0" font-size="200px" dominant-baseline="alphabetic" text-anchor="start" fill="#000000" font-family="Arial" font-weight="normal" font-style="normal" transform="matrix(0.05 0 0 0.05 24 18)">Synthetic </text>
  <text x="0" y="0" font-size="200px" dominant-baseline="alphabetic" text-anchor="start" fill="#000000" font-family="Arial" font-weight="normal" font-style="normal" transform="matrix(0.05 0 0 0.05 67.911133 18)">reaction </text>
  <text x="0" y="0" font-size="200px" dominant-baseline="alphabetic" text-anchor="start" fill="#000000" font-family="Arial" font-weight="normal" font-style="normal" transform="matrix(0.05 0 0 0.05 106.265625 18)">fixture</text>
  <text x="0" y="0" font-size="200" dominant-baseline="alphabetic" text-anchor="start" fill="#000000" font-family="Arial" transform="matrix(0.05 0 0 0.05 178.09 48.9)"><tspan font-size="200" font-family="Arial" fill="#000000" font-weight="400" font-style="normal">O</tspan></text>
  <text x="0" y="0" font-size="200" dominant-baseline="alphabetic" text-anchor="start" fill="#000000" font-family="Arial" transform="matrix(0.05 0 0 0.05 76.09 48.9)"><tspan font-size="200" font-family="Arial" fill="#000000" font-weight="400" font-style="normal">OH</tspan></text>
  <polygon points="187.16,42.78 210,42.78 210,42.18 187.16,42.18" fill="#000000" stroke="none" stroke-width="0" />
  <polygon points="187.16,47.82 210,47.82 210,47.22 187.16,47.22" fill="#000000" stroke="none" stroke-width="0" />
  <polygon points="24,45.3 52,45.3 52,44.7 24,44.7" fill="#000000" stroke="none" stroke-width="0" />
  <polygon points="52,45.3 74.58,45.3 74.58,44.7 52,44.7" fill="#000000" stroke="none" stroke-width="0" />
  <polyline points="112,45 152.75,45" fill="none" stroke="#000000" stroke-width="0.6" stroke-linecap="butt" stroke-linejoin="miter" />
  <path d="M 158,45 C 158,45 152,46.55 152,46.55 C 152,46.55 152.75,45.65625 152.75,45 C 152.75,44.34375 152,43.45 152,43.45 C 152,43.45 158,45 158,45" fill="#000000" stroke="none" />
  <path d="M 158,45 C 158,45 152,46.55 152,46.55 C 152,46.55 152.75,45.65625 152.75,45 C 152.75,44.34375 152,43.45 152,43.45 C 152,43.45 158,45 158,45" fill="none" stroke="#000000" stroke-width="0.133333" />
  <text x="0" y="0" font-size="200px" dominant-baseline="alphabetic" text-anchor="start" fill="#000000" font-family="Arial" font-weight="normal" font-style="normal" transform="matrix(0.05 0 0 0.05 135 36)">H</text>
  <text x="0" y="0" font-size="112.5px" dominant-baseline="alphabetic" text-anchor="start" fill="#000000" font-family="Arial" font-weight="normal" font-style="normal" transform="matrix(0.05 0 0 0.05 142.22168 37.65)">2</text>
  <text x="0" y="0" font-size="200px" dominant-baseline="alphabetic" text-anchor="start" fill="#000000" font-family="Arial" font-weight="normal" font-style="normal" transform="matrix(0.05 0 0 0.05 145.350037 36)">O</text>
</svg>
